# xmcd
#
# Track frame offsets: 
#        150
#        14917
#        25095
#        38916
#        51239
#        64006
#        75299
#        88800
#        103943
#        118756
#        129020
#
# Disc length: 1860 seconds
#
# Revision: 0
# Processed by: cddbd v1.5.2PL0 Copyright (c) Steve Scherf et al.
# Submitted via: ExactAudioCopy v0.99pb4
#
DISCID=8b07420b
DTITLE=Various Artist - Magic Collection
DYEAR=1998
DGENRE=Oldies
TTITLE0=Perry Como - It's impossible
TTITLE1=Paul Anka - Eso Besso (That kiss!)
TTITLE2=Perez Prado - Cherry Pink and Apple Blossom White
TTITLE3=Patsy Cline - Crazy
TTITLE4=Judy Garland - Over the Rainbow
TTITLE5=Buddy Holly - Peggy Sue
TTITLE6=Eartha Kitt - C' est si bon (It's so good)
TTITLE7=Glen Miller - Moonlight Serenade
TTITLE8=Harry Nilsson - Moonlight Serenade
TTITLE9=Buddy  Holly and The Crickets - That'll be the day
TTITLE10=Neil Sedaka - Neil Sedaka
EXTD=
EXTT0=
EXTT1=
EXTT2=
EXTT3=
EXTT4=
EXTT5=
EXTT6=
EXTT7=
EXTT8=
EXTT9=
EXTT10=
PLAYORDER=
